<svg width="250" height="250" viewBox="0 0 250 250" fill="none" xmlns="http://www.w3.org/2000/svg">
<g clip-path="url(#clip0)">
<path d="M245.113 62.6729L127.437 21.1538C125.86 20.5972 124.14 20.5972 122.563 21.1538L4.8877 62.6729C1.96192 63.7051 0.0039121 66.4687 5.85304e-06 69.5713C-0.0039004 72.6738 1.94776 75.4419 4.8711 76.481L122.547 118.315C123.34 118.598 124.17 118.739 125 118.739C125.83 118.739 126.66 118.598 127.453 118.315L245.129 76.481C248.052 75.4419 250.003 72.6738 250 69.5713C249.996 66.4687 248.038 63.7051 245.113 62.6729V62.6729Z" fill="#F44336"/>
<path d="M232.409 160.437V96.5498L217.76 101.757V160.437C213.348 162.976 210.375 167.734 210.375 173.191C210.375 178.647 213.348 183.406 217.76 185.945V221.939C217.76 225.984 221.04 229.264 225.085 229.264C229.13 229.264 232.409 225.984 232.409 221.939V185.946C236.821 183.407 239.794 178.647 239.794 173.191C239.794 167.735 236.822 162.976 232.409 160.437Z" fill="#F44336"/>
<path d="M125 133.387C122.486 133.387 120.01 132.96 117.64 132.118L51.4863 108.6V140.83C51.4863 148.716 59.7124 155.384 75.936 160.65C90.0771 165.24 107.502 167.767 125 167.767C142.498 167.767 159.922 165.24 174.064 160.65C190.288 155.384 198.514 148.716 198.514 140.83V108.6L132.36 132.118C129.99 132.96 127.514 133.387 125 133.387V133.387Z" fill="#F44336"/>
</g>
<defs>
<clipPath id="clip0">
<rect width="250" height="250" fill="white"/>
</clipPath>
</defs>
</svg>
