<svg width="704" height="250" viewBox="0 0 704 250" fill="none" xmlns="http://www.w3.org/2000/svg">
<g clip-path="url(#clip0)">
<path d="M127.271 21.6253L127.271 21.6253L244.946 63.1444C247.672 64.1061 249.496 66.6811 249.5 69.5718C249.503 72.4626 247.685 75.0417 244.961 76.0098L245.129 76.481L244.961 76.0098L127.286 117.844L127.286 117.844C126.546 118.107 125.773 118.239 125 118.239C124.227 118.239 123.454 118.107 122.714 117.844L122.714 117.844L5.03858 76.0098L5.03856 76.0098C2.31475 75.0417 0.496366 72.4626 0.500005 69.5719C0.503645 66.6811 2.32801 64.1061 5.05405 63.1444L4.8877 62.6729L5.05406 63.1444L122.73 21.6253L122.73 21.6253C124.199 21.1067 125.802 21.1067 127.271 21.6253Z" fill="#F44336" stroke="#F44336"/>
<path d="M232.409 160.437V96.5499L217.76 101.757V160.437C213.348 162.976 210.375 167.735 210.375 173.191C210.375 178.647 213.348 183.406 217.76 185.945V221.94C217.76 225.985 221.04 229.264 225.085 229.264C229.13 229.264 232.409 225.985 232.409 221.94V185.946C236.821 183.407 239.794 178.648 239.794 173.192C239.794 167.735 236.822 162.976 232.409 160.437Z" fill="#F44336"/>
<path d="M125 133.387C122.486 133.387 120.01 132.96 117.64 132.118L51.4863 108.6V140.83C51.4863 148.715 59.7124 155.384 75.936 160.65C90.0771 165.239 107.502 167.767 125 167.767C142.498 167.767 159.922 165.239 174.064 160.65C190.288 155.384 198.514 148.715 198.514 140.83V108.6L132.36 132.118C129.99 132.96 127.514 133.387 125 133.387V133.387Z" fill="#F44336"/>
</g>
<g filter="url(#filter0_i)">
<path d="M339.945 116.027H306.195V138.879H345.805V153H288.617V67.6875H345.688V81.9258H306.195V102.258H339.945V116.027ZM351.195 120.832C351.195 110.949 353.402 103.078 357.816 97.2188C362.27 91.3594 368.344 88.4297 376.039 88.4297C382.211 88.4297 387.309 90.7344 391.332 95.3438V63H408.324V153H393.031L392.211 146.262C387.992 151.535 382.562 154.172 375.922 154.172C368.461 154.172 362.465 151.242 357.934 145.383C353.441 139.484 351.195 131.301 351.195 120.832ZM368.129 122.062C368.129 128 369.164 132.551 371.234 135.715C373.305 138.879 376.312 140.461 380.258 140.461C385.492 140.461 389.184 138.254 391.332 133.84V108.82C389.223 104.406 385.57 102.199 380.375 102.199C372.211 102.199 368.129 108.82 368.129 122.062ZM459.418 146.555C455.238 151.633 449.457 154.172 442.074 154.172C435.277 154.172 430.082 152.219 426.488 148.312C422.934 144.406 421.117 138.684 421.039 131.145V89.6016H437.973V130.559C437.973 137.16 440.98 140.461 446.996 140.461C452.738 140.461 456.684 138.469 458.832 134.484V89.6016H475.824V153H459.887L459.418 146.555ZM493.227 153V102.023H483.793V89.6016H493.227V84.2109C493.227 77.1016 495.258 71.5938 499.32 67.6875C503.422 63.7422 509.145 61.7695 516.488 61.7695C518.832 61.7695 521.703 62.1602 525.102 62.9414L524.926 76.0664C523.52 75.7148 521.801 75.5391 519.77 75.5391C513.402 75.5391 510.219 78.5273 510.219 84.5039V89.6016H522.816V102.023H510.219V153H493.227ZM528.969 120.715C528.969 114.426 530.18 108.82 532.602 103.898C535.023 98.9766 538.5 95.168 543.031 92.4727C547.602 89.7773 552.895 88.4297 558.91 88.4297C567.465 88.4297 574.438 91.0469 579.828 96.2812C585.258 101.516 588.285 108.625 588.91 117.609L589.027 121.945C589.027 131.672 586.312 139.484 580.883 145.383C575.453 151.242 568.168 154.172 559.027 154.172C549.887 154.172 542.582 151.242 537.113 145.383C531.684 139.523 528.969 131.555 528.969 121.477V120.715ZM545.902 121.945C545.902 127.961 547.035 132.57 549.301 135.773C551.566 138.938 554.809 140.52 559.027 140.52C563.129 140.52 566.332 138.957 568.637 135.832C570.941 132.668 572.094 127.629 572.094 120.715C572.094 114.816 570.941 110.246 568.637 107.004C566.332 103.762 563.09 102.141 558.91 102.141C554.77 102.141 551.566 103.762 549.301 107.004C547.035 110.207 545.902 115.188 545.902 121.945ZM635.082 105.48C632.777 105.168 630.746 105.012 628.988 105.012C622.582 105.012 618.383 107.18 616.391 111.516V153H599.457V89.6016H615.453L615.922 97.1602C619.32 91.3398 624.027 88.4297 630.043 88.4297C631.918 88.4297 633.676 88.6836 635.316 89.1914L635.082 105.48ZM639.477 120.832C639.477 110.949 641.684 103.078 646.098 97.2188C650.551 91.3594 656.625 88.4297 664.32 88.4297C670.492 88.4297 675.59 90.7344 679.613 95.3438V63H696.605V153H681.312L680.492 146.262C676.273 151.535 670.844 154.172 664.203 154.172C656.742 154.172 650.746 151.242 646.215 145.383C641.723 139.484 639.477 131.301 639.477 120.832ZM656.41 122.062C656.41 128 657.445 132.551 659.516 135.715C661.586 138.879 664.594 140.461 668.539 140.461C673.773 140.461 677.465 138.254 679.613 133.84V108.82C677.504 104.406 673.852 102.199 668.656 102.199C660.492 102.199 656.41 108.82 656.41 122.062Z" fill="white"/>
</g>
<path d="M339.945 116.027V117.027H340.945V116.027H339.945ZM306.195 116.027V115.027H305.195V116.027H306.195ZM306.195 138.879H305.195V139.879H306.195V138.879ZM345.805 138.879H346.805V137.879H345.805V138.879ZM345.805 153V154H346.805V153H345.805ZM288.617 153H287.617V154H288.617V153ZM288.617 67.6875V66.6875H287.617V67.6875H288.617ZM345.688 67.6875H346.688V66.6875H345.688V67.6875ZM345.688 81.9258V82.9258H346.688V81.9258H345.688ZM306.195 81.9258V80.9258H305.195V81.9258H306.195ZM306.195 102.258H305.195V103.258H306.195V102.258ZM339.945 102.258H340.945V101.258H339.945V102.258ZM339.945 115.027H306.195V117.027H339.945V115.027ZM305.195 116.027V138.879H307.195V116.027H305.195ZM306.195 139.879H345.805V137.879H306.195V139.879ZM344.805 138.879V153H346.805V138.879H344.805ZM345.805 152H288.617V154H345.805V152ZM289.617 153V67.6875H287.617V153H289.617ZM288.617 68.6875H345.688V66.6875H288.617V68.6875ZM344.688 67.6875V81.9258H346.688V67.6875H344.688ZM345.688 80.9258H306.195V82.9258H345.688V80.9258ZM305.195 81.9258V102.258H307.195V81.9258H305.195ZM306.195 103.258H339.945V101.258H306.195V103.258ZM338.945 102.258V116.027H340.945V102.258H338.945ZM357.816 97.2188L357.02 96.6137L357.018 96.617L357.816 97.2188ZM391.332 95.3438L390.579 96.0014L392.332 98.0101V95.3438H391.332ZM391.332 63V62H390.332V63H391.332ZM408.324 63H409.324V62H408.324V63ZM408.324 153V154H409.324V153H408.324ZM393.031 153L392.039 153.121L392.146 154H393.031V153ZM392.211 146.262L393.204 146.141L392.916 143.779L391.43 145.637L392.211 146.262ZM357.934 145.383L357.138 145.989L357.143 145.995L357.934 145.383ZM391.332 133.84L392.231 134.277L392.332 134.07V133.84H391.332ZM391.332 108.82H392.332V108.594L392.234 108.389L391.332 108.82ZM352.195 120.832C352.195 111.092 354.37 103.455 358.615 97.8205L357.018 96.617C352.434 102.701 350.195 110.807 350.195 120.832H352.195ZM358.613 97.8238C362.867 92.2262 368.64 89.4297 376.039 89.4297V87.4297C368.048 87.4297 361.672 90.4925 357.02 96.6137L358.613 97.8238ZM376.039 89.4297C381.925 89.4297 386.747 91.6117 390.579 96.0014L392.085 94.6861C387.87 89.857 382.497 87.4297 376.039 87.4297V89.4297ZM392.332 95.3438V63H390.332V95.3438H392.332ZM391.332 64H408.324V62H391.332V64ZM407.324 63V153H409.324V63H407.324ZM408.324 152H393.031V154H408.324V152ZM394.024 152.879L393.204 146.141L391.218 146.383L392.039 153.121L394.024 152.879ZM391.43 145.637C387.397 150.678 382.253 153.172 375.922 153.172V155.172C382.872 155.172 388.587 152.392 392.992 146.886L391.43 145.637ZM375.922 153.172C368.768 153.172 363.065 150.383 358.725 144.771L357.143 145.995C361.865 152.101 368.154 155.172 375.922 155.172V153.172ZM358.729 144.777C354.414 139.112 352.195 131.17 352.195 120.832H350.195C350.195 131.432 352.468 139.857 357.138 145.989L358.729 144.777ZM367.129 122.062C367.129 128.093 368.176 132.867 370.398 136.262L372.071 135.167C370.152 132.234 369.129 127.907 369.129 122.062H367.129ZM370.398 136.262C372.662 139.723 375.993 141.461 380.258 141.461V139.461C376.632 139.461 373.947 138.035 372.071 135.167L370.398 136.262ZM380.258 141.461C383.017 141.461 385.434 140.878 387.465 139.664C389.501 138.447 391.084 136.634 392.231 134.277L390.433 133.402C389.431 135.46 388.095 136.957 386.439 137.947C384.779 138.94 382.733 139.461 380.258 139.461V141.461ZM392.332 133.84V108.82H390.332V133.84H392.332ZM392.234 108.389C391.108 106.032 389.545 104.217 387.528 102.999C385.515 101.782 383.115 101.199 380.375 101.199V103.199C382.83 103.199 384.854 103.72 386.494 104.71C388.129 105.699 389.447 107.194 390.43 109.251L392.234 108.389ZM380.375 101.199C375.967 101.199 372.573 103.017 370.339 106.64C368.154 110.184 367.129 115.371 367.129 122.062H369.129C369.129 115.512 370.144 110.767 372.042 107.69C373.89 104.692 376.619 103.199 380.375 103.199V101.199ZM459.418 146.555L460.415 146.482L460.234 143.99L458.646 145.919L459.418 146.555ZM426.488 148.312L425.749 148.986L425.752 148.99L426.488 148.312ZM421.039 131.145H420.039L420.039 131.155L421.039 131.145ZM421.039 89.6016V88.6016H420.039V89.6016H421.039ZM437.973 89.6016H438.973V88.6016H437.973V89.6016ZM458.832 134.484L459.712 134.959L459.832 134.737V134.484H458.832ZM458.832 89.6016V88.6016H457.832V89.6016H458.832ZM475.824 89.6016H476.824V88.6016H475.824V89.6016ZM475.824 153V154H476.824V153H475.824ZM459.887 153L458.889 153.073L458.957 154H459.887V153ZM458.646 145.919C454.681 150.736 449.199 153.172 442.074 153.172V155.172C449.715 155.172 455.796 152.529 460.19 147.19L458.646 145.919ZM442.074 153.172C435.474 153.172 430.579 151.282 427.224 147.635L425.752 148.99C429.585 153.156 435.081 155.172 442.074 155.172V153.172ZM427.228 147.639C423.897 143.979 422.116 138.532 422.039 131.134L420.039 131.155C420.119 138.835 421.97 144.833 425.749 148.986L427.228 147.639ZM422.039 131.145V89.6016H420.039V131.145H422.039ZM421.039 90.6016H437.973V88.6016H421.039V90.6016ZM436.973 89.6016V130.559H438.973V89.6016H436.973ZM436.973 130.559C436.973 133.992 437.753 136.753 439.489 138.659C441.242 140.582 443.809 141.461 446.996 141.461V139.461C444.168 139.461 442.223 138.689 440.968 137.312C439.696 135.917 438.973 133.727 438.973 130.559H436.973ZM446.996 141.461C452.99 141.461 457.34 139.358 459.712 134.959L457.952 134.01C456.027 137.58 452.487 139.461 446.996 139.461V141.461ZM459.832 134.484V89.6016H457.832V134.484H459.832ZM458.832 90.6016H475.824V88.6016H458.832V90.6016ZM474.824 89.6016V153H476.824V89.6016H474.824ZM475.824 152H459.887V154H475.824V152ZM460.884 152.927L460.415 146.482L458.421 146.627L458.889 153.073L460.884 152.927ZM493.227 153H492.227V154H493.227V153ZM493.227 102.023H494.227V101.023H493.227V102.023ZM483.793 102.023H482.793V103.023H483.793V102.023ZM483.793 89.6016V88.6016H482.793V89.6016H483.793ZM493.227 89.6016V90.6016H494.227V89.6016H493.227ZM499.32 67.6875L500.013 68.4083L500.014 68.4082L499.32 67.6875ZM525.102 62.9414L526.101 62.9548L526.112 62.1477L525.326 61.9668L525.102 62.9414ZM524.926 76.0664L524.683 77.0365L525.909 77.3429L525.926 76.0798L524.926 76.0664ZM510.219 89.6016H509.219V90.6016H510.219V89.6016ZM522.816 89.6016H523.816V88.6016H522.816V89.6016ZM522.816 102.023V103.023H523.816V102.023H522.816ZM510.219 102.023V101.023H509.219V102.023H510.219ZM510.219 153V154H511.219V153H510.219ZM494.227 153V102.023H492.227V153H494.227ZM493.227 101.023H483.793V103.023H493.227V101.023ZM484.793 102.023V89.6016H482.793V102.023H484.793ZM483.793 90.6016H493.227V88.6016H483.793V90.6016ZM494.227 89.6016V84.2109H492.227V89.6016H494.227ZM494.227 84.2109C494.227 77.2982 496.195 72.0795 500.013 68.4083L498.627 66.9667C494.32 71.108 492.227 76.9049 492.227 84.2109H494.227ZM500.014 68.4082C503.879 64.6897 509.325 62.7695 516.488 62.7695V60.7695C508.964 60.7695 502.964 62.7947 498.627 66.9668L500.014 68.4082ZM516.488 62.7695C518.73 62.7695 521.521 63.1443 524.878 63.916L525.326 61.9668C521.886 61.176 518.934 60.7695 516.488 60.7695V62.7695ZM524.102 62.928L523.926 76.053L525.926 76.0798L526.101 62.9548L524.102 62.928ZM525.168 75.0963C523.658 74.7187 521.853 74.5391 519.77 74.5391V76.5391C521.749 76.5391 523.381 76.711 524.683 77.0365L525.168 75.0963ZM519.77 74.5391C516.447 74.5391 513.769 75.3175 511.922 77.0512C510.063 78.796 509.219 81.3447 509.219 84.5039H511.219C511.219 81.6865 511.966 79.7528 513.291 78.5094C514.627 77.2548 516.725 76.5391 519.77 76.5391V74.5391ZM509.219 84.5039V89.6016H511.219V84.5039H509.219ZM510.219 90.6016H522.816V88.6016H510.219V90.6016ZM521.816 89.6016V102.023H523.816V89.6016H521.816ZM522.816 101.023H510.219V103.023H522.816V101.023ZM509.219 102.023V153H511.219V102.023H509.219ZM510.219 152H493.227V154H510.219V152ZM543.031 92.4727L542.523 91.6113L542.52 91.6132L543.031 92.4727ZM579.828 96.2812L579.131 96.9987L579.134 97.0012L579.828 96.2812ZM588.91 117.609L589.91 117.582L589.909 117.561L589.908 117.54L588.91 117.609ZM589.027 121.945H590.027V121.932L590.027 121.918L589.027 121.945ZM580.883 145.383L581.616 146.063L581.619 146.06L580.883 145.383ZM537.113 145.383L536.38 146.063L536.382 146.065L537.113 145.383ZM549.301 135.773L548.484 136.351L548.488 136.356L549.301 135.773ZM568.637 135.832L569.442 136.426L569.445 136.421L568.637 135.832ZM549.301 107.004L550.117 107.581L550.12 107.577L549.301 107.004ZM529.969 120.715C529.969 114.556 531.154 109.106 533.499 104.34L531.704 103.457C529.206 108.535 527.969 114.295 527.969 120.715H529.969ZM533.499 104.34C535.839 99.5844 539.185 95.9243 543.542 93.3321L542.52 91.6132C537.815 94.4117 534.208 98.3687 531.704 103.457L533.499 104.34ZM543.539 93.334C547.936 90.7411 553.049 89.4297 558.91 89.4297V87.4297C552.74 87.4297 547.267 88.8136 542.523 91.6113L543.539 93.334ZM558.91 89.4297C567.244 89.4297 573.954 91.971 579.131 96.9987L580.525 95.5638C574.921 90.1228 567.686 87.4297 558.91 87.4297V89.4297ZM579.134 97.0012C584.352 102.032 587.301 108.891 587.913 117.679L589.908 117.54C589.269 108.359 586.163 101 580.522 95.5613L579.134 97.0012ZM587.911 117.636L588.028 121.972L590.027 121.918L589.91 117.582L587.911 117.636ZM588.027 121.945C588.027 131.477 585.372 139.029 580.147 144.706L581.619 146.06C587.253 139.939 590.027 131.866 590.027 121.945H588.027ZM580.149 144.703C574.937 150.328 567.934 153.172 559.027 153.172V155.172C568.402 155.172 575.969 152.156 581.616 146.063L580.149 144.703ZM559.027 153.172C550.121 153.172 543.097 150.328 537.844 144.7L536.382 146.065C542.067 152.156 549.652 155.172 559.027 155.172V153.172ZM537.847 144.703C532.63 139.073 529.969 131.371 529.969 121.477H527.969C527.969 131.738 530.737 139.973 536.38 146.063L537.847 144.703ZM529.969 121.477V120.715H527.969V121.477H529.969ZM544.902 121.945C544.902 128.065 546.051 132.911 548.484 136.351L550.117 135.196C548.019 132.23 546.902 127.857 546.902 121.945H544.902ZM548.488 136.356C550.959 139.807 554.518 141.52 559.027 141.52V139.52C555.099 139.52 552.174 138.068 550.114 135.191L548.488 136.356ZM559.027 141.52C563.426 141.52 566.936 139.823 569.442 136.426L567.832 135.238C565.728 138.091 562.832 139.52 559.027 139.52V141.52ZM569.445 136.421C571.938 132.998 573.094 127.697 573.094 120.715H571.094C571.094 127.561 569.945 132.338 567.828 135.243L569.445 136.421ZM573.094 120.715C573.094 114.704 571.922 109.9 569.452 106.425L567.822 107.583C569.961 110.592 571.094 114.929 571.094 120.715H573.094ZM569.452 106.425C566.949 102.903 563.394 101.141 558.91 101.141V103.141C562.785 103.141 565.716 104.62 567.822 107.583L569.452 106.425ZM558.91 101.141C554.461 101.141 550.944 102.907 548.481 106.431L550.12 107.577C552.189 104.617 555.078 103.141 558.91 103.141V101.141ZM548.484 106.426C546.04 109.882 544.902 115.114 544.902 121.945H546.902C546.902 115.261 548.03 110.532 550.117 107.581L548.484 106.426ZM635.082 105.48L634.948 106.471L636.066 106.623L636.082 105.495L635.082 105.48ZM616.391 111.516L615.482 111.098L615.391 111.297V111.516H616.391ZM616.391 153V154H617.391V153H616.391ZM599.457 153H598.457V154H599.457V153ZM599.457 89.6016V88.6016H598.457V89.6016H599.457ZM615.453 89.6016L616.451 89.5397L616.393 88.6016H615.453V89.6016ZM615.922 97.1602L614.924 97.2221L615.127 100.504L616.785 97.6644L615.922 97.1602ZM635.316 89.1914L636.316 89.2058L636.327 88.4574L635.612 88.2361L635.316 89.1914ZM635.216 104.49C632.88 104.173 630.803 104.012 628.988 104.012V106.012C630.689 106.012 632.674 106.163 634.948 106.471L635.216 104.49ZM628.988 104.012C622.35 104.012 617.694 106.283 615.482 111.098L617.299 111.933C619.071 108.077 622.814 106.012 628.988 106.012V104.012ZM615.391 111.516V153H617.391V111.516H615.391ZM616.391 152H599.457V154H616.391V152ZM600.457 153V89.6016H598.457V153H600.457ZM599.457 90.6016H615.453V88.6016H599.457V90.6016ZM614.455 89.6635L614.924 97.2221L616.92 97.0983L616.451 89.5397L614.455 89.6635ZM616.785 97.6644C620.031 92.1066 624.432 89.4297 630.043 89.4297V87.4297C623.623 87.4297 618.61 90.5731 615.058 96.6559L616.785 97.6644ZM630.043 89.4297C631.827 89.4297 633.484 89.6711 635.021 90.1467L635.612 88.2361C633.867 87.6961 632.009 87.4297 630.043 87.4297V89.4297ZM634.317 89.177L634.082 105.466L636.082 105.495L636.316 89.2058L634.317 89.177ZM646.098 97.2188L645.301 96.6137L645.299 96.617L646.098 97.2188ZM679.613 95.3438L678.86 96.0014L680.613 98.0101V95.3438H679.613ZM679.613 63V62H678.613V63H679.613ZM696.605 63H697.605V62H696.605V63ZM696.605 153V154H697.605V153H696.605ZM681.312 153L680.32 153.121L680.427 154H681.312V153ZM680.492 146.262L681.485 146.141L681.197 143.779L679.711 145.637L680.492 146.262ZM646.215 145.383L645.419 145.989L645.424 145.995L646.215 145.383ZM679.613 133.84L680.512 134.277L680.613 134.07V133.84H679.613ZM679.613 108.82H680.613V108.594L680.516 108.389L679.613 108.82ZM640.477 120.832C640.477 111.092 642.652 103.455 646.896 97.8205L645.299 96.617C640.716 102.701 638.477 110.807 638.477 120.832H640.477ZM646.894 97.8238C651.148 92.2262 656.921 89.4297 664.32 89.4297V87.4297C656.329 87.4297 649.954 90.4925 645.301 96.6137L646.894 97.8238ZM664.32 89.4297C670.206 89.4297 675.028 91.6117 678.86 96.0014L680.367 94.6861C676.151 89.857 670.778 87.4297 664.32 87.4297V89.4297ZM680.613 95.3438V63H678.613V95.3438H680.613ZM679.613 64H696.605V62H679.613V64ZM695.605 63V153H697.605V63H695.605ZM696.605 152H681.312V154H696.605V152ZM682.305 152.879L681.485 146.141L679.5 146.383L680.32 153.121L682.305 152.879ZM679.711 145.637C675.679 150.678 670.534 153.172 664.203 153.172V155.172C671.153 155.172 676.868 152.392 681.273 146.886L679.711 145.637ZM664.203 153.172C657.049 153.172 651.346 150.383 647.006 144.771L645.424 145.995C650.146 152.101 656.435 155.172 664.203 155.172V153.172ZM647.01 144.777C642.696 139.112 640.477 131.17 640.477 120.832H638.477C638.477 131.432 640.75 139.857 645.419 145.989L647.01 144.777ZM655.41 122.062C655.41 128.093 656.457 132.867 658.679 136.262L660.352 135.167C658.433 132.234 657.41 127.907 657.41 122.062H655.41ZM658.679 136.262C660.943 139.723 664.274 141.461 668.539 141.461V139.461C664.914 139.461 662.229 138.035 660.352 135.167L658.679 136.262ZM668.539 141.461C671.298 141.461 673.715 140.878 675.747 139.664C677.782 138.447 679.366 136.634 680.512 134.277L678.714 133.402C677.713 135.46 676.376 136.957 674.72 137.947C673.06 138.94 671.015 139.461 668.539 139.461V141.461ZM680.613 133.84V108.82H678.613V133.84H680.613ZM680.516 108.389C679.389 106.032 677.826 104.217 675.809 102.999C673.796 101.782 671.397 101.199 668.656 101.199V103.199C671.111 103.199 673.135 103.72 674.775 104.71C676.41 105.699 677.728 107.194 678.711 109.251L680.516 108.389ZM668.656 101.199C664.248 101.199 660.854 103.017 658.62 106.64C656.436 110.184 655.41 115.371 655.41 122.062H657.41C657.41 115.512 658.426 110.767 660.323 107.69C662.171 104.692 664.9 103.199 668.656 103.199V101.199Z" fill="white"/>
<defs>
<filter id="filter0_i" x="287.617" y="60.7695" width="409.988" height="98.4023" filterUnits="userSpaceOnUse" color-interpolation-filters="sRGB">
<feFlood flood-opacity="0" result="BackgroundImageFix"/>
<feBlend mode="normal" in="SourceGraphic" in2="BackgroundImageFix" result="shape"/>
<feColorMatrix in="SourceAlpha" type="matrix" values="0 0 0 0 0 0 0 0 0 0 0 0 0 0 0 0 0 0 127 0" result="hardAlpha"/>
<feOffset dy="4"/>
<feGaussianBlur stdDeviation="2"/>
<feComposite in2="hardAlpha" operator="arithmetic" k2="-1" k3="1"/>
<feColorMatrix type="matrix" values="0 0 0 0 0 0 0 0 0 0 0 0 0 0 0 0 0 0 0.25 0"/>
<feBlend mode="normal" in2="shape" result="effect1_innerShadow"/>
</filter>
<clipPath id="clip0">
<rect width="250" height="250" fill="white"/>
</clipPath>
</defs>
</svg>
