<svg width="703" height="250" viewBox="0 0 703 250" fill="none" xmlns="http://www.w3.org/2000/svg">
<g clip-path="url(#clip0)">
<path d="M127.271 21.6253L127.271 21.6253L244.946 63.1444C247.672 64.1061 249.496 66.6811 249.5 69.5718C249.503 72.4626 247.685 75.0417 244.961 76.0098L245.129 76.481L244.961 76.0098L127.286 117.844L127.286 117.844C126.546 118.107 125.773 118.239 125 118.239C124.227 118.239 123.454 118.107 122.714 117.844L122.714 117.844L5.03858 76.0098L5.03856 76.0098C2.31475 75.0417 0.496366 72.4626 0.500005 69.5719C0.503645 66.6811 2.32801 64.1061 5.05405 63.1444L4.8877 62.6729L5.05406 63.1444L122.73 21.6253L122.73 21.6253C124.199 21.1067 125.802 21.1067 127.271 21.6253Z" fill="#F44336" stroke="#F44336"/>
<path d="M232.409 160.437V96.5499L217.76 101.757V160.437C213.348 162.976 210.375 167.735 210.375 173.191C210.375 178.647 213.348 183.406 217.76 185.945V221.94C217.76 225.985 221.04 229.264 225.085 229.264C229.13 229.264 232.409 225.985 232.409 221.94V185.946C236.821 183.407 239.794 178.648 239.794 173.192C239.794 167.735 236.822 162.976 232.409 160.437Z" fill="#F44336"/>
<path d="M125 133.387C122.486 133.387 120.01 132.96 117.64 132.118L51.4863 108.6V140.83C51.4863 148.715 59.7124 155.384 75.936 160.65C90.0771 165.239 107.502 167.767 125 167.767C142.498 167.767 159.922 165.239 174.064 160.65C190.288 155.384 198.514 148.715 198.514 140.83V108.6L132.36 132.118C129.99 132.96 127.514 133.387 125 133.387V133.387Z" fill="#F44336"/>
</g>
<g filter="url(#filter0_i)">
<path d="M338.945 116.027H305.195V138.879H344.805V153H287.617V67.6875H344.688V81.9258H305.195V102.258H338.945V116.027ZM350.195 120.832C350.195 110.949 352.402 103.078 356.816 97.2188C361.27 91.3594 367.344 88.4297 375.039 88.4297C381.211 88.4297 386.309 90.7344 390.332 95.3438V63H407.324V153H392.031L391.211 146.262C386.992 151.535 381.562 154.172 374.922 154.172C367.461 154.172 361.465 151.242 356.934 145.383C352.441 139.484 350.195 131.301 350.195 120.832ZM367.129 122.062C367.129 128 368.164 132.551 370.234 135.715C372.305 138.879 375.312 140.461 379.258 140.461C384.492 140.461 388.184 138.254 390.332 133.84V108.82C388.223 104.406 384.57 102.199 379.375 102.199C371.211 102.199 367.129 108.82 367.129 122.062ZM458.418 146.555C454.238 151.633 448.457 154.172 441.074 154.172C434.277 154.172 429.082 152.219 425.488 148.312C421.934 144.406 420.117 138.684 420.039 131.145V89.6016H436.973V130.559C436.973 137.16 439.98 140.461 445.996 140.461C451.738 140.461 455.684 138.469 457.832 134.484V89.6016H474.824V153H458.887L458.418 146.555ZM492.227 153V102.023H482.793V89.6016H492.227V84.2109C492.227 77.1016 494.258 71.5938 498.32 67.6875C502.422 63.7422 508.145 61.7695 515.488 61.7695C517.832 61.7695 520.703 62.1602 524.102 62.9414L523.926 76.0664C522.52 75.7148 520.801 75.5391 518.77 75.5391C512.402 75.5391 509.219 78.5273 509.219 84.5039V89.6016H521.816V102.023H509.219V153H492.227ZM527.969 120.715C527.969 114.426 529.18 108.82 531.602 103.898C534.023 98.9766 537.5 95.168 542.031 92.4727C546.602 89.7773 551.895 88.4297 557.91 88.4297C566.465 88.4297 573.438 91.0469 578.828 96.2812C584.258 101.516 587.285 108.625 587.91 117.609L588.027 121.945C588.027 131.672 585.312 139.484 579.883 145.383C574.453 151.242 567.168 154.172 558.027 154.172C548.887 154.172 541.582 151.242 536.113 145.383C530.684 139.523 527.969 131.555 527.969 121.477V120.715ZM544.902 121.945C544.902 127.961 546.035 132.57 548.301 135.773C550.566 138.938 553.809 140.52 558.027 140.52C562.129 140.52 565.332 138.957 567.637 135.832C569.941 132.668 571.094 127.629 571.094 120.715C571.094 114.816 569.941 110.246 567.637 107.004C565.332 103.762 562.09 102.141 557.91 102.141C553.77 102.141 550.566 103.762 548.301 107.004C546.035 110.207 544.902 115.188 544.902 121.945ZM634.082 105.48C631.777 105.168 629.746 105.012 627.988 105.012C621.582 105.012 617.383 107.18 615.391 111.516V153H598.457V89.6016H614.453L614.922 97.1602C618.32 91.3398 623.027 88.4297 629.043 88.4297C630.918 88.4297 632.676 88.6836 634.316 89.1914L634.082 105.48ZM638.477 120.832C638.477 110.949 640.684 103.078 645.098 97.2188C649.551 91.3594 655.625 88.4297 663.32 88.4297C669.492 88.4297 674.59 90.7344 678.613 95.3438V63H695.605V153H680.312L679.492 146.262C675.273 151.535 669.844 154.172 663.203 154.172C655.742 154.172 649.746 151.242 645.215 145.383C640.723 139.484 638.477 131.301 638.477 120.832ZM655.41 122.062C655.41 128 656.445 132.551 658.516 135.715C660.586 138.879 663.594 140.461 667.539 140.461C672.773 140.461 676.465 138.254 678.613 133.84V108.82C676.504 104.406 672.852 102.199 667.656 102.199C659.492 102.199 655.41 108.82 655.41 122.062Z" fill="white"/>
</g>
<path d="M338.945 116.027V117.027H339.945V116.027H338.945ZM305.195 116.027V115.027H304.195V116.027H305.195ZM305.195 138.879H304.195V139.879H305.195V138.879ZM344.805 138.879H345.805V137.879H344.805V138.879ZM344.805 153V154H345.805V153H344.805ZM287.617 153H286.617V154H287.617V153ZM287.617 67.6875V66.6875H286.617V67.6875H287.617ZM344.688 67.6875H345.688V66.6875H344.688V67.6875ZM344.688 81.9258V82.9258H345.688V81.9258H344.688ZM305.195 81.9258V80.9258H304.195V81.9258H305.195ZM305.195 102.258H304.195V103.258H305.195V102.258ZM338.945 102.258H339.945V101.258H338.945V102.258ZM338.945 115.027H305.195V117.027H338.945V115.027ZM304.195 116.027V138.879H306.195V116.027H304.195ZM305.195 139.879H344.805V137.879H305.195V139.879ZM343.805 138.879V153H345.805V138.879H343.805ZM344.805 152H287.617V154H344.805V152ZM288.617 153V67.6875H286.617V153H288.617ZM287.617 68.6875H344.688V66.6875H287.617V68.6875ZM343.688 67.6875V81.9258H345.688V67.6875H343.688ZM344.688 80.9258H305.195V82.9258H344.688V80.9258ZM304.195 81.9258V102.258H306.195V81.9258H304.195ZM305.195 103.258H338.945V101.258H305.195V103.258ZM337.945 102.258V116.027H339.945V102.258H337.945ZM356.816 97.2188L356.02 96.6137L356.018 96.617L356.816 97.2188ZM390.332 95.3438L389.579 96.0014L391.332 98.0101V95.3438H390.332ZM390.332 63V62H389.332V63H390.332ZM407.324 63H408.324V62H407.324V63ZM407.324 153V154H408.324V153H407.324ZM392.031 153L391.039 153.121L391.146 154H392.031V153ZM391.211 146.262L392.204 146.141L391.916 143.779L390.43 145.637L391.211 146.262ZM356.934 145.383L356.138 145.989L356.143 145.995L356.934 145.383ZM390.332 133.84L391.231 134.277L391.332 134.07V133.84H390.332ZM390.332 108.82H391.332V108.594L391.234 108.389L390.332 108.82ZM351.195 120.832C351.195 111.092 353.37 103.455 357.615 97.8205L356.018 96.617C351.434 102.701 349.195 110.807 349.195 120.832H351.195ZM357.613 97.8238C361.867 92.2262 367.64 89.4297 375.039 89.4297V87.4297C367.048 87.4297 360.672 90.4925 356.02 96.6137L357.613 97.8238ZM375.039 89.4297C380.925 89.4297 385.747 91.6117 389.579 96.0014L391.085 94.6861C386.87 89.857 381.497 87.4297 375.039 87.4297V89.4297ZM391.332 95.3438V63H389.332V95.3438H391.332ZM390.332 64H407.324V62H390.332V64ZM406.324 63V153H408.324V63H406.324ZM407.324 152H392.031V154H407.324V152ZM393.024 152.879L392.204 146.141L390.218 146.383L391.039 153.121L393.024 152.879ZM390.43 145.637C386.397 150.678 381.253 153.172 374.922 153.172V155.172C381.872 155.172 387.587 152.392 391.992 146.886L390.43 145.637ZM374.922 153.172C367.768 153.172 362.065 150.383 357.725 144.771L356.143 145.995C360.865 152.101 367.154 155.172 374.922 155.172V153.172ZM357.729 144.777C353.414 139.112 351.195 131.17 351.195 120.832H349.195C349.195 131.432 351.468 139.857 356.138 145.989L357.729 144.777ZM366.129 122.062C366.129 128.093 367.176 132.867 369.398 136.262L371.071 135.167C369.152 132.234 368.129 127.907 368.129 122.062H366.129ZM369.398 136.262C371.662 139.723 374.993 141.461 379.258 141.461V139.461C375.632 139.461 372.947 138.035 371.071 135.167L369.398 136.262ZM379.258 141.461C382.017 141.461 384.434 140.878 386.465 139.664C388.501 138.447 390.084 136.634 391.231 134.277L389.433 133.402C388.431 135.46 387.095 136.957 385.439 137.947C383.779 138.94 381.733 139.461 379.258 139.461V141.461ZM391.332 133.84V108.82H389.332V133.84H391.332ZM391.234 108.389C390.108 106.032 388.545 104.217 386.528 102.999C384.515 101.782 382.115 101.199 379.375 101.199V103.199C381.83 103.199 383.854 103.72 385.494 104.71C387.129 105.699 388.447 107.194 389.43 109.251L391.234 108.389ZM379.375 101.199C374.967 101.199 371.573 103.017 369.339 106.64C367.154 110.184 366.129 115.371 366.129 122.062H368.129C368.129 115.512 369.144 110.767 371.042 107.69C372.89 104.692 375.619 103.199 379.375 103.199V101.199ZM458.418 146.555L459.415 146.482L459.234 143.99L457.646 145.919L458.418 146.555ZM425.488 148.312L424.749 148.986L424.752 148.99L425.488 148.312ZM420.039 131.145H419.039L419.039 131.155L420.039 131.145ZM420.039 89.6016V88.6016H419.039V89.6016H420.039ZM436.973 89.6016H437.973V88.6016H436.973V89.6016ZM457.832 134.484L458.712 134.959L458.832 134.737V134.484H457.832ZM457.832 89.6016V88.6016H456.832V89.6016H457.832ZM474.824 89.6016H475.824V88.6016H474.824V89.6016ZM474.824 153V154H475.824V153H474.824ZM458.887 153L457.889 153.073L457.957 154H458.887V153ZM457.646 145.919C453.681 150.736 448.199 153.172 441.074 153.172V155.172C448.715 155.172 454.796 152.529 459.19 147.19L457.646 145.919ZM441.074 153.172C434.474 153.172 429.579 151.282 426.224 147.635L424.752 148.99C428.585 153.156 434.081 155.172 441.074 155.172V153.172ZM426.228 147.639C422.897 143.979 421.116 138.532 421.039 131.134L419.039 131.155C419.119 138.835 420.97 144.833 424.749 148.986L426.228 147.639ZM421.039 131.145V89.6016H419.039V131.145H421.039ZM420.039 90.6016H436.973V88.6016H420.039V90.6016ZM435.973 89.6016V130.559H437.973V89.6016H435.973ZM435.973 130.559C435.973 133.992 436.753 136.753 438.489 138.659C440.242 140.582 442.809 141.461 445.996 141.461V139.461C443.168 139.461 441.223 138.689 439.968 137.312C438.696 135.917 437.973 133.727 437.973 130.559H435.973ZM445.996 141.461C451.99 141.461 456.34 139.358 458.712 134.959L456.952 134.01C455.027 137.58 451.487 139.461 445.996 139.461V141.461ZM458.832 134.484V89.6016H456.832V134.484H458.832ZM457.832 90.6016H474.824V88.6016H457.832V90.6016ZM473.824 89.6016V153H475.824V89.6016H473.824ZM474.824 152H458.887V154H474.824V152ZM459.884 152.927L459.415 146.482L457.421 146.627L457.889 153.073L459.884 152.927ZM492.227 153H491.227V154H492.227V153ZM492.227 102.023H493.227V101.023H492.227V102.023ZM482.793 102.023H481.793V103.023H482.793V102.023ZM482.793 89.6016V88.6016H481.793V89.6016H482.793ZM492.227 89.6016V90.6016H493.227V89.6016H492.227ZM498.32 67.6875L499.013 68.4083L499.014 68.4082L498.32 67.6875ZM524.102 62.9414L525.101 62.9548L525.112 62.1477L524.326 61.9668L524.102 62.9414ZM523.926 76.0664L523.683 77.0365L524.909 77.3429L524.926 76.0798L523.926 76.0664ZM509.219 89.6016H508.219V90.6016H509.219V89.6016ZM521.816 89.6016H522.816V88.6016H521.816V89.6016ZM521.816 102.023V103.023H522.816V102.023H521.816ZM509.219 102.023V101.023H508.219V102.023H509.219ZM509.219 153V154H510.219V153H509.219ZM493.227 153V102.023H491.227V153H493.227ZM492.227 101.023H482.793V103.023H492.227V101.023ZM483.793 102.023V89.6016H481.793V102.023H483.793ZM482.793 90.6016H492.227V88.6016H482.793V90.6016ZM493.227 89.6016V84.2109H491.227V89.6016H493.227ZM493.227 84.2109C493.227 77.2982 495.195 72.0795 499.013 68.4083L497.627 66.9667C493.32 71.108 491.227 76.9049 491.227 84.2109H493.227ZM499.014 68.4082C502.879 64.6897 508.325 62.7695 515.488 62.7695V60.7695C507.964 60.7695 501.964 62.7947 497.627 66.9668L499.014 68.4082ZM515.488 62.7695C517.73 62.7695 520.521 63.1443 523.878 63.916L524.326 61.9668C520.886 61.176 517.934 60.7695 515.488 60.7695V62.7695ZM523.102 62.928L522.926 76.053L524.926 76.0798L525.101 62.9548L523.102 62.928ZM524.168 75.0963C522.658 74.7187 520.853 74.5391 518.77 74.5391V76.5391C520.749 76.5391 522.381 76.711 523.683 77.0365L524.168 75.0963ZM518.77 74.5391C515.447 74.5391 512.769 75.3175 510.922 77.0512C509.063 78.796 508.219 81.3447 508.219 84.5039H510.219C510.219 81.6865 510.966 79.7528 512.291 78.5094C513.627 77.2548 515.725 76.5391 518.77 76.5391V74.5391ZM508.219 84.5039V89.6016H510.219V84.5039H508.219ZM509.219 90.6016H521.816V88.6016H509.219V90.6016ZM520.816 89.6016V102.023H522.816V89.6016H520.816ZM521.816 101.023H509.219V103.023H521.816V101.023ZM508.219 102.023V153H510.219V102.023H508.219ZM509.219 152H492.227V154H509.219V152ZM542.031 92.4727L541.523 91.6113L541.52 91.6132L542.031 92.4727ZM578.828 96.2812L578.131 96.9987L578.134 97.0012L578.828 96.2812ZM587.91 117.609L588.91 117.582L588.909 117.561L588.908 117.54L587.91 117.609ZM588.027 121.945H589.027V121.932L589.027 121.918L588.027 121.945ZM579.883 145.383L580.616 146.063L580.619 146.06L579.883 145.383ZM536.113 145.383L535.38 146.063L535.382 146.065L536.113 145.383ZM548.301 135.773L547.484 136.351L547.488 136.356L548.301 135.773ZM567.637 135.832L568.442 136.426L568.445 136.421L567.637 135.832ZM548.301 107.004L549.117 107.581L549.12 107.577L548.301 107.004ZM528.969 120.715C528.969 114.556 530.154 109.106 532.499 104.34L530.704 103.457C528.206 108.535 526.969 114.295 526.969 120.715H528.969ZM532.499 104.34C534.839 99.5844 538.185 95.9243 542.542 93.3321L541.52 91.6132C536.815 94.4117 533.208 98.3687 530.704 103.457L532.499 104.34ZM542.539 93.334C546.936 90.7411 552.049 89.4297 557.91 89.4297V87.4297C551.74 87.4297 546.267 88.8136 541.523 91.6113L542.539 93.334ZM557.91 89.4297C566.244 89.4297 572.954 91.971 578.131 96.9987L579.525 95.5638C573.921 90.1228 566.686 87.4297 557.91 87.4297V89.4297ZM578.134 97.0012C583.352 102.032 586.301 108.891 586.913 117.679L588.908 117.54C588.269 108.359 585.163 101 579.522 95.5613L578.134 97.0012ZM586.911 117.636L587.028 121.972L589.027 121.918L588.91 117.582L586.911 117.636ZM587.027 121.945C587.027 131.477 584.372 139.029 579.147 144.706L580.619 146.06C586.253 139.939 589.027 131.866 589.027 121.945H587.027ZM579.149 144.703C573.937 150.328 566.934 153.172 558.027 153.172V155.172C567.402 155.172 574.969 152.156 580.616 146.063L579.149 144.703ZM558.027 153.172C549.121 153.172 542.097 150.328 536.844 144.7L535.382 146.065C541.067 152.156 548.652 155.172 558.027 155.172V153.172ZM536.847 144.703C531.63 139.073 528.969 131.371 528.969 121.477H526.969C526.969 131.738 529.737 139.973 535.38 146.063L536.847 144.703ZM528.969 121.477V120.715H526.969V121.477H528.969ZM543.902 121.945C543.902 128.065 545.051 132.911 547.484 136.351L549.117 135.196C547.019 132.23 545.902 127.857 545.902 121.945H543.902ZM547.488 136.356C549.959 139.807 553.518 141.52 558.027 141.52V139.52C554.099 139.52 551.174 138.068 549.114 135.191L547.488 136.356ZM558.027 141.52C562.426 141.52 565.936 139.823 568.442 136.426L566.832 135.238C564.728 138.091 561.832 139.52 558.027 139.52V141.52ZM568.445 136.421C570.938 132.998 572.094 127.697 572.094 120.715H570.094C570.094 127.561 568.945 132.338 566.828 135.243L568.445 136.421ZM572.094 120.715C572.094 114.704 570.922 109.9 568.452 106.425L566.822 107.583C568.961 110.592 570.094 114.929 570.094 120.715H572.094ZM568.452 106.425C565.949 102.903 562.394 101.141 557.91 101.141V103.141C561.785 103.141 564.716 104.62 566.822 107.583L568.452 106.425ZM557.91 101.141C553.461 101.141 549.944 102.907 547.481 106.431L549.12 107.577C551.189 104.617 554.078 103.141 557.91 103.141V101.141ZM547.484 106.426C545.04 109.882 543.902 115.114 543.902 121.945H545.902C545.902 115.261 547.03 110.532 549.117 107.581L547.484 106.426ZM634.082 105.48L633.948 106.471L635.066 106.623L635.082 105.495L634.082 105.48ZM615.391 111.516L614.482 111.098L614.391 111.297V111.516H615.391ZM615.391 153V154H616.391V153H615.391ZM598.457 153H597.457V154H598.457V153ZM598.457 89.6016V88.6016H597.457V89.6016H598.457ZM614.453 89.6016L615.451 89.5397L615.393 88.6016H614.453V89.6016ZM614.922 97.1602L613.924 97.2221L614.127 100.504L615.785 97.6644L614.922 97.1602ZM634.316 89.1914L635.316 89.2058L635.327 88.4574L634.612 88.2361L634.316 89.1914ZM634.216 104.49C631.88 104.173 629.803 104.012 627.988 104.012V106.012C629.689 106.012 631.674 106.163 633.948 106.471L634.216 104.49ZM627.988 104.012C621.35 104.012 616.694 106.283 614.482 111.098L616.299 111.933C618.071 108.077 621.814 106.012 627.988 106.012V104.012ZM614.391 111.516V153H616.391V111.516H614.391ZM615.391 152H598.457V154H615.391V152ZM599.457 153V89.6016H597.457V153H599.457ZM598.457 90.6016H614.453V88.6016H598.457V90.6016ZM613.455 89.6635L613.924 97.2221L615.92 97.0983L615.451 89.5397L613.455 89.6635ZM615.785 97.6644C619.031 92.1066 623.432 89.4297 629.043 89.4297V87.4297C622.623 87.4297 617.61 90.5731 614.058 96.6559L615.785 97.6644ZM629.043 89.4297C630.827 89.4297 632.484 89.6711 634.021 90.1467L634.612 88.2361C632.867 87.6961 631.009 87.4297 629.043 87.4297V89.4297ZM633.317 89.177L633.082 105.466L635.082 105.495L635.316 89.2058L633.317 89.177ZM645.098 97.2188L644.301 96.6137L644.299 96.617L645.098 97.2188ZM678.613 95.3438L677.86 96.0014L679.613 98.0101V95.3438H678.613ZM678.613 63V62H677.613V63H678.613ZM695.605 63H696.605V62H695.605V63ZM695.605 153V154H696.605V153H695.605ZM680.312 153L679.32 153.121L679.427 154H680.312V153ZM679.492 146.262L680.485 146.141L680.197 143.779L678.711 145.637L679.492 146.262ZM645.215 145.383L644.419 145.989L644.424 145.995L645.215 145.383ZM678.613 133.84L679.512 134.277L679.613 134.07V133.84H678.613ZM678.613 108.82H679.613V108.594L679.516 108.389L678.613 108.82ZM639.477 120.832C639.477 111.092 641.652 103.455 645.896 97.8205L644.299 96.617C639.716 102.701 637.477 110.807 637.477 120.832H639.477ZM645.894 97.8238C650.148 92.2262 655.921 89.4297 663.32 89.4297V87.4297C655.329 87.4297 648.954 90.4925 644.301 96.6137L645.894 97.8238ZM663.32 89.4297C669.206 89.4297 674.028 91.6117 677.86 96.0014L679.367 94.6861C675.151 89.857 669.778 87.4297 663.32 87.4297V89.4297ZM679.613 95.3438V63H677.613V95.3438H679.613ZM678.613 64H695.605V62H678.613V64ZM694.605 63V153H696.605V63H694.605ZM695.605 152H680.312V154H695.605V152ZM681.305 152.879L680.485 146.141L678.5 146.383L679.32 153.121L681.305 152.879ZM678.711 145.637C674.679 150.678 669.534 153.172 663.203 153.172V155.172C670.153 155.172 675.868 152.392 680.273 146.886L678.711 145.637ZM663.203 153.172C656.049 153.172 650.346 150.383 646.006 144.771L644.424 145.995C649.146 152.101 655.435 155.172 663.203 155.172V153.172ZM646.01 144.777C641.696 139.112 639.477 131.17 639.477 120.832H637.477C637.477 131.432 639.75 139.857 644.419 145.989L646.01 144.777ZM654.41 122.062C654.41 128.093 655.457 132.867 657.679 136.262L659.352 135.167C657.433 132.234 656.41 127.907 656.41 122.062H654.41ZM657.679 136.262C659.943 139.723 663.274 141.461 667.539 141.461V139.461C663.914 139.461 661.229 138.035 659.352 135.167L657.679 136.262ZM667.539 141.461C670.298 141.461 672.715 140.878 674.747 139.664C676.782 138.447 678.366 136.634 679.512 134.277L677.714 133.402C676.713 135.46 675.376 136.957 673.72 137.947C672.06 138.94 670.015 139.461 667.539 139.461V141.461ZM679.613 133.84V108.82H677.613V133.84H679.613ZM679.516 108.389C678.389 106.032 676.826 104.217 674.809 102.999C672.796 101.782 670.397 101.199 667.656 101.199V103.199C670.111 103.199 672.135 103.72 673.775 104.71C675.41 105.699 676.728 107.194 677.711 109.251L679.516 108.389ZM667.656 101.199C663.248 101.199 659.854 103.017 657.62 106.64C655.436 110.184 654.41 115.371 654.41 122.062H656.41C656.41 115.512 657.426 110.767 659.323 107.69C661.171 104.692 663.9 103.199 667.656 103.199V101.199Z" fill="#1A202C"/>
<defs>
<filter id="filter0_i" x="286.617" y="60.7695" width="409.988" height="98.4023" filterUnits="userSpaceOnUse" color-interpolation-filters="sRGB">
<feFlood flood-opacity="0" result="BackgroundImageFix"/>
<feBlend mode="normal" in="SourceGraphic" in2="BackgroundImageFix" result="shape"/>
<feColorMatrix in="SourceAlpha" type="matrix" values="0 0 0 0 0 0 0 0 0 0 0 0 0 0 0 0 0 0 127 0" result="hardAlpha"/>
<feOffset dy="4"/>
<feGaussianBlur stdDeviation="2"/>
<feComposite in2="hardAlpha" operator="arithmetic" k2="-1" k3="1"/>
<feColorMatrix type="matrix" values="0 0 0 0 0 0 0 0 0 0 0 0 0 0 0 0 0 0 0.25 0"/>
<feBlend mode="normal" in2="shape" result="effect1_innerShadow"/>
</filter>
<clipPath id="clip0">
<rect width="250" height="250" fill="white"/>
</clipPath>
</defs>
</svg>
