<svg width="19" height="19" viewBox="0 0 19 19" fill="none" xmlns="http://www.w3.org/2000/svg">
<g clip-path="url(#clip0)">
<path d="M17.6957 1.30431C15.9566 -0.434782 13.1371 -0.434782 11.398 1.30427L7.67613 5.02612C5.87725 6.82507 6.0438 9.6914 7.67613 11.3238C7.94948 11.5972 8.25192 11.82 8.57128 12.0031L9.25057 11.3238C9.6961 10.8782 9.53928 10.3573 9.53127 9.98141C9.43348 9.91209 9.33837 9.83717 9.25057 9.74937C8.4129 8.91177 8.37523 7.47586 9.25057 6.60052C9.38056 6.47053 12.8934 2.95765 12.9723 2.87875C13.8407 2.01043 15.2529 2.01043 16.1212 2.87875C16.9895 3.74707 16.9895 5.15927 16.1212 6.02759L13.6611 8.48768C13.7322 8.8813 14.1592 9.81371 13.9396 11.3518C13.9503 11.3413 13.9631 11.3345 13.9738 11.3238L17.6957 7.602C19.4347 5.8629 19.4347 3.04341 17.6957 1.30431Z" fill="#F56565"/>
<path d="M11.6122 7.38775C11.3389 7.1144 11.0364 6.89152 10.7171 6.70846L10.0378 7.38775C9.5922 7.83328 9.74902 8.35419 9.75704 8.73007C9.8549 8.79939 9.95001 8.87431 10.0378 8.96211C10.8755 9.79978 10.9131 11.2356 10.0378 12.111C9.90752 12.2412 6.10366 16.0451 6.02755 16.1212C5.15922 16.9895 3.74703 16.9895 2.8787 16.1212C2.01038 15.2529 2.01038 13.8407 2.8787 12.9724L5.62728 10.2238C5.55615 9.83018 5.12916 8.89777 5.34881 7.35966C5.33809 7.3702 5.32518 7.37706 5.31449 7.38771L1.30426 11.398C-0.434755 13.1371 -0.434755 15.9566 1.30426 17.6957C3.04336 19.4347 5.86282 19.4347 7.60191 17.6957L11.6122 13.6854C13.3777 11.9199 13.2812 9.05674 11.6122 7.38775Z" fill="#F56565"/>
</g>
<defs>
<clipPath id="clip0">
<rect width="19" height="19" fill="white"/>
</clipPath>
</defs>
</svg>
