<svg width="20" height="20" viewBox="0 0 20 20" fill="none" xmlns="http://www.w3.org/2000/svg">
<path d="M19.5079 8.81255L11.1886 0.493215C10.5324 -0.16294 9.46824 -0.16294 8.81209 0.493215C8.15593 1.14937 8.15593 2.21355 8.81209 2.86971L15.9424 9.99996L8.81209 17.1302C8.15593 17.7863 8.15593 18.8505 8.81209 19.5067C9.46824 20.1628 10.5324 20.1628 11.1886 19.5067L19.5079 11.1874C20.164 10.5329 20.164 9.46871 19.5079 8.81255ZM9.50488 8.30878L2.90006 1.34757C2.23639 0.648962 1.16142 0.648962 0.497753 1.34757C-0.165918 2.04617 -0.165918 3.17947 0.497753 3.87892L5.90186 9.57445L0.497753 15.27C-0.165918 15.9686 -0.165919 17.1027 0.497753 17.8013C1.16142 18.5 2.23639 18.5 2.90006 17.8013L9.50488 10.8401C10.1685 10.1415 10.1685 9.00823 9.50488 8.30878Z" fill="#447EC5"/>
</svg>
