<svg width="20" height="20" viewBox="0 0 20 20" fill="none" xmlns="http://www.w3.org/2000/svg">
<path d="M0.492115 11.1874L8.81142 19.5068C9.46757 20.1629 10.5318 20.1629 11.1879 19.5068C11.8441 18.8506 11.8441 17.7864 11.1879 17.1303L4.05762 10L11.1879 2.86981C11.8441 2.21366 11.8441 1.14948 11.1879 0.493321C10.5318 -0.162834 9.46757 -0.162834 8.81142 0.493321L0.492115 8.81263C-0.16404 9.46715 -0.16404 10.5313 0.492115 11.1874ZM10.4951 11.6912L17.0999 18.6524C17.7636 19.351 18.8386 19.351 19.5022 18.6524C20.1659 17.9538 20.1659 16.8205 19.5022 16.1211L14.0981 10.4255L19.5022 4.73001C20.1659 4.03137 20.1659 2.89729 19.5022 2.19866C18.8386 1.50002 17.7636 1.50002 17.0999 2.19866L10.4951 9.15987C9.83145 9.85847 9.83145 10.9918 10.4951 11.6912Z" fill="#A0AEC0"/>
</svg>
